<?xml version="1.0" standalone="no"?>
<!DOCTYPE svg PUBLIC "-//W3C//DTD SVG 20010904//EN"
 "http://www.w3.org/TR/2001/REC-SVG-20010904/DTD/svg10.dtd">
<svg version="1.0" xmlns="http://www.w3.org/2000/svg"
 width="256.000000pt" height="256.000000pt" viewBox="0 0 256.000000 256.000000"
 preserveAspectRatio="xMidYMid meet">

<g transform="translate(0.000000,256.000000) scale(0.100000,-0.100000)"
fill="#000000" stroke="none">
<path d="M610 2442 c-19 -10 -82 -43 -140 -74 -58 -30 -167 -88 -243 -127
-129 -69 -155 -91 -104 -91 13 0 88 -17 167 -39 80 -21 184 -48 231 -60 l85
-21 195 65 c107 37 230 77 274 91 44 14 89 29 100 34 11 5 37 14 58 20 21 7
37 13 35 15 -4 4 -612 205 -618 205 -3 -1 -21 -9 -40 -18z"/>
<path d="M1626 2360 c-159 -55 -290 -101 -292 -103 -2 -2 148 -54 333 -116
l338 -111 110 30 c61 17 168 45 238 64 70 18 128 37 128 42 1 4 -43 31 -97 59
-55 28 -173 90 -263 138 -90 48 -174 89 -185 92 -12 2 -151 -40 -310 -95z"/>
<path d="M55 1872 l0 -238 93 -114 c181 -222 485 -604 537 -675 17 -22 32 -42
35 -45 3 -3 95 -117 204 -255 212 -266 241 -301 209 -245 -11 19 -40 69 -63
110 -74 129 -102 176 -310 520 -233 386 -494 823 -655 1098 -26 45 -48 82 -49
82 -1 0 -1 -107 -1 -238z"/>
<path d="M2479 2028 c-92 -149 -162 -266 -324 -543 -29 -49 -91 -153 -137
-229 -45 -77 -93 -157 -106 -178 -12 -22 -48 -81 -79 -131 -127 -208 -254
-419 -313 -522 -35 -60 -70 -121 -78 -135 -12 -21 -10 -21 14 5 16 17 40 46
54 65 14 18 90 115 170 216 80 100 181 229 225 285 114 146 476 599 554 693
l65 79 2 233 c2 129 1 234 0 234 -1 0 -23 -33 -47 -72z"/>
</g>
</svg>
